<svg xmlns="http://www.w3.org/2000/svg" version="1.0" style="" preserveAspectRatio="xMidYMid meet" viewBox="34.1 68.84 511.3 187.66">
<g fill="#4C9BD4FF" stroke="#4C9BD4FF">
<path d="M 109.000 70.442 C 96.238 73.141 85.907 77.635 73.658 85.819 C 66.232 90.780 52.769 104.490 49.269 110.656 C 37.295 131.749 34.453 141.890 34.602 163.000 C 34.721 179.805 36.434 187.729 42.954 201.643 C 49.607 215.839 61.843 230.391 74.241 238.849 C 81.355 243.703 94.504 249.703 103.500 252.201 C 110.310 254.092 113.955 254.418 128.000 254.392 C 143.280 254.363 145.128 254.155 153.000 251.586 C 175.921 244.103 192.972 231.496 205.077 213.082 C 220.287 189.944 224.318 162.575 216.492 135.571 C 207.452 104.373 182.399 80.251 150.000 71.546 C 141.251 69.196 117.871 68.566 109.000 70.442 M 148.298 83.053 C 170.663 88.511 192.744 107.450 202.626 129.652 C 206.202 137.685 208.974 151.811 208.974 162.000 C 208.974 184.075 201.376 202.554 185.606 218.837 C 166.463 238.602 140.543 247.195 114.013 242.572 C 97.646 239.719 86.995 234.892 75.246 225.003 C 51.466 204.985 41.625 177.315 47.081 145.811 C 50.548 125.790 63.568 106.339 81.983 93.667 C 91.633 87.027 104.519 82.652 120.500 80.590 C 126.095 79.868 140.466 81.141 148.298 83.053 "/></g>
<g fill="#000000FF" stroke="#000000FF">
<path d="M 432.923 90.923 C 430.544 93.302 430.000 94.698 430.000 98.423 C 430.000 101.472 429.573 103.000 428.722 103.000 C 426.571 103.000 412.829 109.935 407.753 113.582 L 402.964 117.022 399.022 115.011 C 393.716 112.304 388.897 112.395 386.310 115.250 C 385.189 116.488 380.355 123.673 375.570 131.217 C 365.035 147.825 364.758 149.764 372.240 154.500 L 376.981 157.500 376.375 162.407 C 375.605 168.648 375.605 175.352 376.375 181.593 L 376.981 186.500 372.240 189.500 C 364.758 194.236 365.035 196.175 375.570 212.783 C 380.355 220.327 385.189 227.513 386.310 228.750 C 388.897 231.605 393.716 231.696 399.022 228.989 L 402.964 226.978 407.753 230.418 C 412.829 234.065 426.571 241.000 428.722 241.000 C 429.573 241.000 430.000 242.528 430.000 245.577 C 430.000 249.302 430.544 250.698 432.923 253.077 L 435.846 256.000 456.000 256.000 L 476.154 256.000 479.077 253.077 C 481.456 250.698 482.000 249.302 482.000 245.577 C 482.000 242.528 482.427 241.000 483.278 241.000 C 485.429 241.000 499.171 234.065 504.247 230.418 L 509.036 226.978 512.978 228.989 C 518.286 231.697 523.105 231.606 525.680 228.750 C 526.795 227.513 531.628 220.316 536.418 212.757 C 546.871 196.264 547.177 194.278 540.000 189.511 L 535.500 186.523 535.500 172.000 L 535.500 157.477 540.000 154.489 C 547.177 149.722 546.871 147.736 536.418 131.243 C 531.628 123.684 526.795 116.488 525.680 115.250 C 523.105 112.394 518.286 112.303 512.978 115.011 L 509.036 117.022 504.247 113.582 C 499.171 109.935 485.429 103.000 483.278 103.000 C 482.427 103.000 482.000 101.472 482.000 98.423 C 482.000 94.698 481.456 93.302 479.077 90.923 L 476.154 88.000 456.000 88.000 L 435.846 88.000 432.923 90.923 M 476.000 99.418 L 476.500 105.336 484.085 108.418 C 490.502 111.025 500.977 116.828 507.098 121.165 C 508.348 122.052 509.858 121.745 514.044 119.756 C 516.986 118.357 519.990 117.443 520.720 117.723 C 521.907 118.178 524.508 121.864 531.502 133.000 C 532.711 134.925 535.131 138.736 536.881 141.469 C 538.631 144.201 539.932 147.126 539.772 147.969 C 539.612 148.811 537.109 150.773 534.210 152.330 C 528.974 155.141 528.944 155.184 529.720 158.830 C 530.149 160.848 530.500 166.775 530.500 172.000 C 530.500 177.225 530.149 183.152 529.720 185.170 C 528.944 188.816 528.974 188.859 534.210 191.670 C 537.109 193.227 539.612 195.189 539.772 196.031 C 539.932 196.874 538.631 199.799 536.881 202.531 C 535.131 205.264 532.711 209.075 531.502 211.000 C 524.542 222.082 521.911 225.820 520.762 226.261 C 520.056 226.532 517.261 225.684 514.552 224.377 C 511.843 223.070 509.256 222.000 508.802 222.000 C 508.348 222.000 504.895 224.049 501.130 226.552 C 497.365 229.056 490.283 232.826 485.392 234.930 L 476.500 238.756 476.000 244.628 L 475.500 250.500 456.000 250.500 L 436.500 250.500 436.000 244.582 L 435.500 238.664 427.937 235.582 C 420.095 232.386 412.739 228.356 407.406 224.334 C 403.591 221.457 403.498 221.457 397.448 224.377 C 394.739 225.684 391.944 226.532 391.238 226.261 C 390.089 225.820 387.458 222.082 380.498 211.000 C 379.289 209.075 376.869 205.264 375.119 202.531 C 373.369 199.799 372.068 196.874 372.228 196.031 C 372.388 195.189 374.891 193.227 377.790 191.670 C 383.026 188.859 383.056 188.816 382.280 185.170 C 381.272 180.429 381.272 163.571 382.280 158.830 C 383.056 155.184 383.026 155.141 377.790 152.330 C 374.891 150.773 372.388 148.811 372.228 147.969 C 372.068 147.126 373.369 144.201 375.119 141.469 C 376.869 138.736 379.289 134.925 380.498 133.000 C 387.492 121.864 390.093 118.178 391.280 117.723 C 392.010 117.443 395.014 118.357 397.956 119.756 C 402.050 121.701 403.679 122.043 404.902 121.213 C 412.350 116.155 419.819 111.995 427.000 108.903 L 435.500 105.243 435.780 100.371 C 436.235 92.431 434.818 92.927 456.227 93.228 L 475.500 93.500 476.000 99.418 "/></g>
<g fill="#000000FF" stroke="#000000FF">
<path d="M 444.000 123.560 C 430.820 126.401 416.968 135.372 409.900 145.646 C 399.349 160.981 399.349 183.019 409.900 198.354 C 419.174 211.833 438.956 221.965 456.000 221.965 C 463.306 221.965 473.994 219.275 481.645 215.510 C 499.690 206.631 510.000 190.811 510.000 172.000 C 510.000 153.189 499.690 137.369 481.645 128.490 C 469.277 122.404 456.889 120.782 444.000 123.560 M 466.114 127.999 C 473.534 129.375 484.775 135.093 490.920 140.618 C 509.763 157.560 509.763 186.440 490.920 203.382 C 475.127 217.582 452.239 220.859 433.510 211.602 C 416.463 203.177 407.000 189.041 407.000 172.000 C 407.000 155.016 416.482 140.799 433.355 132.485 C 443.948 127.265 454.420 125.831 466.114 127.999 "/></g>
<g fill="#4C9BD4FF" stroke="#4C9BD4FF">
<path d="M 153.609 126.250 C 148.751 136.701 145.572 143.695 138.497 159.500 C 126.214 186.937 120.854 198.512 120.057 199.326 C 119.612 199.780 113.842 189.655 107.235 176.826 L 95.222 153.500 89.111 153.202 C 85.750 153.039 83.000 153.224 83.000 153.613 C 83.000 154.466 110.884 209.035 112.112 210.585 C 113.252 212.025 124.631 212.406 125.480 211.033 C 125.842 210.447 126.484 210.181 126.907 210.443 C 127.331 210.704 129.618 206.549 131.990 201.209 C 134.362 195.869 138.485 186.857 141.152 181.182 C 143.818 175.507 146.000 170.697 146.000 170.492 C 146.000 170.288 151.175 158.778 157.500 144.914 C 163.825 131.050 169.000 119.548 169.000 119.353 C 169.000 119.159 166.295 119.000 162.990 119.000 L 156.979 119.000 153.609 126.250 "/></g>
<g fill="#000000FF" stroke="#000000FF">
<path d="M 330.607 127.582 C 330.273 128.452 330.000 132.052 330.000 135.582 C 330.000 141.723 330.106 142.000 332.445 142.000 C 334.642 142.000 334.921 141.531 335.195 137.378 L 335.500 132.757 347.500 142.494 C 354.100 147.850 359.620 152.538 359.766 152.913 C 359.912 153.287 354.399 158.182 347.516 163.790 L 335.000 173.986 335.000 169.564 C 335.000 161.699 336.573 162.000 295.474 162.000 L 259.091 162.000 258.796 155.260 C 258.573 150.193 258.124 148.449 256.983 148.232 C 255.565 147.962 223.858 172.925 223.231 174.806 C 222.725 176.324 255.855 202.270 257.495 201.640 C 258.651 201.197 259.000 199.314 259.000 193.531 C 259.000 186.165 258.945 186.000 256.500 186.000 C 254.204 186.000 254.000 186.367 254.000 190.500 C 254.000 192.975 253.769 195.000 253.487 195.000 C 252.515 195.000 229.500 175.693 229.500 174.877 C 229.500 174.089 252.578 155.000 253.531 155.000 C 253.789 155.000 254.000 156.605 254.000 158.566 C 254.000 160.527 254.466 163.002 255.035 164.066 C 256.030 165.924 257.512 166.000 292.989 166.000 L 329.909 166.000 330.204 172.740 C 330.430 177.880 330.869 179.549 332.053 179.775 C 334.514 180.244 363.439 156.331 363.808 153.523 C 364.064 151.571 361.544 149.065 348.808 138.606 C 340.389 131.692 332.986 126.027 332.357 126.017 C 331.728 126.008 330.941 126.712 330.607 127.582 "/></g>
<g fill="#000000FF" stroke="#000000FF">
<path d="M 279.734 107.514 C 250.561 113.051 228.402 132.136 224.097 155.434 C 222.572 163.684 222.642 164.190 225.250 163.820 C 227.147 163.550 227.598 162.700 228.122 158.402 C 229.426 147.721 233.300 139.775 241.435 131.097 C 254.311 117.360 272.767 110.035 294.500 110.035 C 309.688 110.035 328.643 114.921 329.741 119.118 C 330.394 121.615 335.006 121.731 334.985 119.250 C 334.976 118.288 334.639 117.005 334.235 116.401 C 333.295 114.995 322.015 110.504 314.387 108.498 C 305.720 106.220 289.045 105.746 279.734 107.514 "/></g>
<g fill="#000000FF" stroke="#000000FF">
<path d="M 361.667 164.667 C 361.300 165.033 361.000 166.752 361.000 168.485 C 361.000 170.219 360.283 174.081 359.407 177.068 C 354.488 193.835 339.785 207.675 319.500 214.635 C 312.084 217.179 310.296 217.384 295.000 217.440 C 283.972 217.480 277.173 217.067 274.500 216.193 C 264.745 213.007 259.000 210.440 259.000 209.267 C 259.000 208.570 257.875 208.000 256.500 208.000 C 253.938 208.000 253.555 208.678 254.593 211.381 C 255.415 213.523 268.810 218.510 278.860 220.415 C 313.379 226.959 349.288 210.825 361.638 183.221 C 364.981 175.750 365.003 161.330 361.667 164.667 "/></g>
<g fill="#000000FF" stroke="#000000FF">
<path d="M 454.200 160.200 C 452.315 162.085 452.571 182.399 454.500 184.000 C 456.627 185.765 459.000 183.592 459.000 179.878 C 459.000 177.129 459.204 177.000 463.550 177.000 C 469.340 177.000 473.381 174.910 474.959 171.098 C 476.720 166.848 475.191 162.912 470.940 160.752 C 466.931 158.714 456.045 158.355 454.200 160.200 M 470.000 166.000 C 471.980 169.700 469.667 172.000 463.965 172.000 L 459.000 172.000 459.000 168.000 L 459.000 164.000 463.965 164.000 C 467.906 164.000 469.150 164.412 470.000 166.000 "/></g>
<g fill="#000000FF" stroke="#000000FF">
<path d="M 434.239 160.250 C 431.569 163.567 424.655 181.658 425.357 183.488 C 426.205 185.697 427.730 185.341 429.592 182.500 C 431.045 180.282 431.924 180.000 437.378 180.000 C 442.732 180.000 443.653 180.282 444.513 182.185 C 445.673 184.754 446.963 185.307 448.913 184.074 C 450.077 183.338 449.557 181.271 445.965 172.340 C 440.846 159.611 440.458 159.000 437.500 159.000 C 436.260 159.000 434.792 159.563 434.239 160.250 M 441.000 174.167 C 441.000 174.688 439.229 174.977 437.065 174.807 L 433.129 174.500 435.208 169.713 L 437.287 164.926 439.144 169.072 C 440.165 171.353 441.000 173.645 441.000 174.167 "/></g>
<g fill="#000000FF" stroke="#000000FF">
<path d="M 491.000 121.434 C 491.000 122.222 493.588 124.907 496.750 127.399 C 499.913 129.891 503.625 133.330 505.000 135.041 C 506.375 136.752 508.348 139.130 509.384 140.326 C 510.421 141.522 512.591 145.425 514.207 149.000 C 518.217 157.874 518.477 158.326 519.821 158.774 C 522.014 159.505 522.355 155.679 520.551 150.577 C 517.362 141.561 509.328 131.080 499.897 123.634 C 495.178 119.908 491.000 118.875 491.000 121.434 "/></g>
<g fill="#000000FF" stroke="#000000FF">
<path d="M 408.250 213.662 C 405.988 214.575 407.018 216.449 411.793 220.107 C 423.242 228.879 448.791 237.366 452.024 233.471 C 453.877 231.238 452.422 230.279 445.300 229.039 C 432.821 226.865 421.758 222.078 413.673 215.352 C 410.760 212.928 410.371 212.807 408.250 213.662 "/></g>
<g fill="#000000FF" stroke="#000000FF">
<path d="M 480.213 160.188 C 478.283 162.117 478.564 182.393 480.542 184.035 C 483.384 186.393 484.076 183.718 483.783 171.498 C 483.504 159.843 482.797 157.603 480.213 160.188 "/></g>
<g fill="#000000FF" stroke="#000000FF">
<path d="M 254.000 178.500 C 254.000 179.769 256.389 180.000 269.500 180.000 C 282.611 180.000 285.000 179.769 285.000 178.500 C 285.000 177.231 282.611 177.000 269.500 177.000 C 256.389 177.000 254.000 177.231 254.000 178.500 "/></g>
<g fill="#000000FF" stroke="#000000FF">
<path d="M 304.000 149.500 C 304.000 150.769 306.389 151.000 319.500 151.000 C 332.611 151.000 335.000 150.769 335.000 149.500 C 335.000 148.231 332.611 148.000 319.500 148.000 C 306.389 148.000 304.000 148.231 304.000 149.500 "/></g>
<g fill="#000000FF" stroke="#000000FF">
<path d="M 395.547 199.923 C 395.234 200.431 395.927 202.456 397.087 204.423 C 398.576 206.947 399.905 208.000 401.599 208.000 C 404.592 208.000 404.631 206.550 401.750 202.319 C 399.574 199.123 396.723 198.021 395.547 199.923 "/></g>
<g fill="#000000FF" stroke="#000000FF">
<path d="M 474.667 112.667 C 473.098 114.235 474.249 116.077 477.697 117.518 C 479.731 118.368 481.981 118.838 482.697 118.563 C 485.153 117.620 484.000 114.898 480.532 113.449 C 476.661 111.831 475.638 111.695 474.667 112.667 "/></g>
<g fill="#000000FF" stroke="#000000FF">
<path d="M 294.000 149.500 C 294.000 150.433 294.944 151.000 296.500 151.000 C 298.056 151.000 299.000 150.433 299.000 149.500 C 299.000 148.567 298.056 148.000 296.500 148.000 C 294.944 148.000 294.000 148.567 294.000 149.500 "/></g>
<g fill="#000000FF" stroke="#000000FF">
<path d="M 308.000 178.500 C 308.000 179.333 308.889 180.000 310.000 180.000 C 311.111 180.000 312.000 179.333 312.000 178.500 C 312.000 177.667 311.111 177.000 310.000 177.000 C 308.889 177.000 308.000 177.667 308.000 178.500 "/></g>
<g fill="#000000FF" stroke="#000000FF">
<path d="M 299.000 178.500 C 299.000 179.333 299.889 180.000 301.000 180.000 C 302.111 180.000 303.000 179.333 303.000 178.500 C 303.000 177.667 302.111 177.000 301.000 177.000 C 299.889 177.000 299.000 177.667 299.000 178.500 "/></g>
<g fill="#000000FF" stroke="#000000FF">
<path d="M 290.000 178.500 C 290.000 179.333 290.889 180.000 292.000 180.000 C 293.111 180.000 294.000 179.333 294.000 178.500 C 294.000 177.667 293.111 177.000 292.000 177.000 C 290.889 177.000 290.000 177.667 290.000 178.500 "/></g>
<g fill="#000000FF" stroke="#000000FF">
<path d="M 286.000 149.500 C 286.000 150.333 286.889 151.000 288.000 151.000 C 289.111 151.000 290.000 150.333 290.000 149.500 C 290.000 148.667 289.111 148.000 288.000 148.000 C 286.889 148.000 286.000 148.667 286.000 149.500 "/></g>
<g fill="#000000FF" stroke="#000000FF">
<path d="M 277.000 149.500 C 277.000 150.333 277.889 151.000 279.000 151.000 C 280.111 151.000 281.000 150.333 281.000 149.500 C 281.000 148.667 280.111 148.000 279.000 148.000 C 277.889 148.000 277.000 148.667 277.000 149.500 "/></g>
</svg>
