<svg xmlns="http://www.w3.org/2000/svg" xmlns:xlink="http://www.w3.org/1999/xlink" zoomAndPan="magnify" preserveAspectRatio="xMidYMid meet" version="1.0" viewBox="12.65 51.23 193.48 52.98"><defs><g/><clipPath id="cf03d6782b"><path d="M 28 75 L 38 75 L 38 90 L 28 90 Z M 28 75 " clip-rule="nonzero"/></clipPath><clipPath id="ef5807f8b2"><path d="M 30.828125 74.125 L 38.144531 88.339844 L 35.46875 89.71875 L 28.152344 75.503906 Z M 30.828125 74.125 " clip-rule="nonzero"/></clipPath><clipPath id="2856f92841"><path d="M 31.464844 75.367188 L 37.507812 87.097656 L 35.46875 89.71875 L 28.152344 75.503906 Z M 31.464844 75.367188 " clip-rule="nonzero"/></clipPath><clipPath id="2e82fbce4b"><path d="M 37 67 L 50 67 L 50 90 L 37 90 Z M 37 67 " clip-rule="nonzero"/></clipPath><clipPath id="ecd6dfc18f"><path d="M 36.550781 88.46875 L 46.683594 66.0625 L 49.425781 67.304688 L 39.292969 89.710938 Z M 36.550781 88.46875 " clip-rule="nonzero"/></clipPath><clipPath id="f848b79d27"><path d="M 37.125 87.199219 L 46.109375 67.335938 L 49.425781 67.304688 L 39.292969 89.710938 Z M 37.125 87.199219 " clip-rule="nonzero"/></clipPath><clipPath id="bca829210f"><path d="M 35.449219 87.203125 L 39.308594 87.203125 L 39.308594 89.714844 L 35.449219 89.714844 Z M 35.449219 87.203125 " clip-rule="nonzero"/></clipPath><clipPath id="d0444270ef"><path d="M 37.378906 87.203125 L 39.308594 89.714844 L 35.449219 89.714844 Z M 37.378906 87.203125 " clip-rule="nonzero"/></clipPath><clipPath id="f87918b13c"><path d="M 16.648438 55.234375 L 61.625 55.234375 L 61.625 100.210938 L 16.648438 100.210938 Z M 16.648438 55.234375 " clip-rule="nonzero"/></clipPath><clipPath id="791477e6b9"><path d="M 39.136719 55.234375 C 26.71875 55.234375 16.648438 65.304688 16.648438 77.722656 C 16.648438 90.144531 26.71875 100.210938 39.136719 100.210938 C 51.558594 100.210938 61.625 90.144531 61.625 77.722656 C 61.625 65.304688 51.558594 55.234375 39.136719 55.234375 Z M 39.136719 55.234375 " clip-rule="nonzero"/></clipPath></defs><g fill="#000000" fill-opacity="1"><g transform="translate(62.609515, 85.455804)"><g><path d="M 11.09375 0 L 16.949219 -16.21875 L 13.046875 -16.21875 L 8.863281 -2.84375 L 4.75 -16.21875 L 0.753906 -16.21875 L 6.535156 0 Z M 11.09375 0 "/></g></g></g><g fill="#000000" fill-opacity="1"><g transform="translate(79.346516, 85.455804)"><g><path d="M 10.953125 -4.582031 L 12.433594 0 L 16.433594 0 L 10.648438 -16.21875 L 6.089844 -16.21875 L 0.234375 0 L 4.160156 0 L 5.664062 -4.582031 Z M 8.320312 -13.023438 L 10.039062 -7.476562 L 6.582031 -7.476562 Z M 8.320312 -13.023438 "/></g></g></g><g fill="#000000" fill-opacity="1"><g transform="translate(95.566371, 85.455804)"><g><path d="M 14.035156 -3.101562 L 5.6875 -3.101562 L 5.6875 -16.21875 L 2 -16.21875 L 2 0 L 14.035156 0 Z M 14.035156 -3.101562 "/></g></g></g><g fill="#000000" fill-opacity="1"><g transform="translate(110.023199, 85.455804)"><g><path d="M 5.6875 0 L 5.6875 -16.21875 L 2 -16.21875 L 2 0 Z M 5.6875 0 "/></g></g></g><g fill="#000000" fill-opacity="1"><g transform="translate(117.122323, 85.455804)"><g><path d="M 9.898438 -16.125 C 9.074219 -16.21875 8.699219 -16.21875 7.828125 -16.21875 L 2 -16.21875 L 2 0 L 7.804688 0 C 8.675781 0 9.050781 0 9.875 -0.09375 C 13.632812 -0.539062 16.667969 -3.316406 16.667969 -8.320312 C 16.667969 -13.328125 13.65625 -15.703125 9.898438 -16.125 Z M 8.980469 -2.9375 C 8.4375 -2.890625 8.015625 -2.890625 7.335938 -2.890625 L 5.6875 -2.890625 L 5.6875 -13.351562 L 7.359375 -13.351562 C 8.039062 -13.351562 8.460938 -13.328125 9.003906 -13.28125 C 11.285156 -13.023438 12.789062 -11.332031 12.789062 -8.273438 C 12.789062 -5.148438 11.261719 -3.195312 8.980469 -2.9375 Z M 8.980469 -2.9375 "/></g></g></g><g fill="#4e9bd4" fill-opacity="1"><g transform="translate(134.500834, 85.455804)"><g><path d="M 10.953125 -4.582031 L 12.433594 0 L 16.433594 0 L 10.648438 -16.21875 L 6.089844 -16.21875 L 0.234375 0 L 4.160156 0 L 5.664062 -4.582031 Z M 8.320312 -13.023438 L 10.039062 -7.476562 L 6.582031 -7.476562 Z M 8.320312 -13.023438 "/></g></g></g><g fill="#4e9bd4" fill-opacity="1"><g transform="translate(150.72069, 85.455804)"><g><path d="M 5.6875 0 L 5.6875 -16.21875 L 2 -16.21875 L 2 0 Z M 5.6875 0 "/></g></g></g><g fill="#000000" fill-opacity="1"><g transform="translate(157.82042, 85.455804)"><g><path d="M 14.925781 -13.351562 L 14.925781 -16.21875 L 0.445312 -16.21875 L 0.445312 -13.351562 L 5.851562 -13.351562 L 5.851562 0 L 9.519531 0 L 9.519531 -13.351562 Z M 14.925781 -13.351562 "/></g></g></g><g fill="#000000" fill-opacity="1"><g transform="translate(172.55933, 85.455804)"><g><path d="M 9.378906 -16.550781 C 4.347656 -16.550781 1.222656 -13.257812 1.222656 -8.109375 C 1.222656 -2.984375 4.347656 0.328125 9.378906 0.328125 C 14.386719 0.328125 17.511719 -2.984375 17.511719 -8.109375 C 17.511719 -13.257812 14.386719 -16.550781 9.378906 -16.550781 Z M 9.378906 -2.398438 C 6.675781 -2.398438 5.03125 -4.488281 5.03125 -8.109375 C 5.03125 -11.753906 6.675781 -13.824219 9.378906 -13.824219 C 12.058594 -13.824219 13.703125 -11.753906 13.703125 -8.109375 C 13.703125 -4.488281 12.058594 -2.398438 9.378906 -2.398438 Z M 9.378906 -2.398438 "/></g></g></g><g fill="#000000" fill-opacity="1"><g transform="translate(190.777276, 85.455804)"><g><path d="M 14.152344 -4.019531 C 13.964844 -5.898438 13.328125 -7.191406 11.683594 -7.804688 C 13.726562 -8.390625 14.902344 -9.730469 14.902344 -11.800781 C 14.902344 -14.644531 12.953125 -15.820312 10.601562 -16.101562 C 9.753906 -16.195312 9.121094 -16.21875 8.15625 -16.21875 L 2 -16.21875 L 2 0 L 5.6875 0 L 5.6875 -6.371094 L 7.144531 -6.371094 C 7.59375 -6.371094 7.992188 -6.371094 8.4375 -6.347656 C 9.660156 -6.253906 10.34375 -5.21875 10.554688 -3.457031 C 10.695312 -2.09375 10.929688 -1.128906 11.332031 0 L 15.351562 0 C 14.691406 -0.941406 14.363281 -2.117188 14.152344 -4.019531 Z M 5.6875 -9.074219 L 5.6875 -13.351562 L 7.734375 -13.351562 C 8.25 -13.351562 8.652344 -13.328125 8.980469 -13.304688 C 10.179688 -13.164062 11.046875 -12.695312 11.046875 -11.214844 C 11.046875 -9.730469 10.039062 -9.214844 8.839844 -9.097656 C 8.507812 -9.074219 8.109375 -9.074219 7.59375 -9.074219 Z M 5.6875 -9.074219 "/></g></g></g><g clip-path="url(#cf03d6782b)"><g clip-path="url(#ef5807f8b2)"><g clip-path="url(#2856f92841)"><path fill="#4e9bd4" d="M 30.828125 74.125 L 38.144531 88.339844 L 35.46875 89.71875 L 28.152344 75.503906 Z M 30.828125 74.125 " fill-opacity="1" fill-rule="nonzero"/></g></g></g><g clip-path="url(#2e82fbce4b)"><g clip-path="url(#ecd6dfc18f)"><g clip-path="url(#f848b79d27)"><path fill="#4e9bd4" d="M 36.550781 88.46875 L 46.683594 66.0625 L 49.425781 67.304688 L 39.292969 89.710938 Z M 36.550781 88.46875 " fill-opacity="1" fill-rule="nonzero"/></g></g></g><g clip-path="url(#bca829210f)"><g clip-path="url(#d0444270ef)"><path fill="#4e9bd4" d="M 35.449219 87.203125 L 39.308594 87.203125 L 39.308594 89.714844 L 35.449219 89.714844 Z M 35.449219 87.203125 " fill-opacity="1" fill-rule="nonzero"/></g></g><g clip-path="url(#f87918b13c)"><g clip-path="url(#791477e6b9)"><path stroke-linecap="butt" transform="matrix(0.744174, 0, 0, 0.744174, 16.649866, 55.234981)" fill="none" stroke-linejoin="miter" d="M 30.217211 -0.000813918 C 13.530288 -0.000813918 -0.00192019 13.531394 -0.00192019 30.218317 C -0.00192019 46.91049 13.530288 60.437449 30.217211 60.437449 C 46.909384 60.437449 60.436343 46.91049 60.436343 30.218317 C 60.436343 13.531394 46.909384 -0.000813918 30.217211 -0.000813918 Z M 30.217211 -0.000813918 " stroke="#4e9bd4" stroke-width="8" stroke-opacity="1" stroke-miterlimit="4"/></g></g></svg>
