<svg xmlns="http://www.w3.org/2000/svg" xmlns:xlink="http://www.w3.org/1999/xlink" zoomAndPan="magnify" preserveAspectRatio="xMidYMid meet" version="1.0" viewBox="12.65 51.23 193.44 52.98"><defs><g/><clipPath id="4ec8f2aba3"><path d="M 28 75 L 38 75 L 38 90 L 28 90 Z M 28 75 " clip-rule="nonzero"/></clipPath><clipPath id="87f898daae"><path d="M 30.828125 74.125 L 38.144531 88.339844 L 35.46875 89.71875 L 28.152344 75.503906 Z M 30.828125 74.125 " clip-rule="nonzero"/></clipPath><clipPath id="c3d99ab40f"><path d="M 31.464844 75.367188 L 37.507812 87.097656 L 35.46875 89.71875 L 28.152344 75.503906 Z M 31.464844 75.367188 " clip-rule="nonzero"/></clipPath><clipPath id="bc86214349"><path d="M 37 67 L 50 67 L 50 90 L 37 90 Z M 37 67 " clip-rule="nonzero"/></clipPath><clipPath id="1149e397cc"><path d="M 36.550781 88.46875 L 46.683594 66.0625 L 49.425781 67.304688 L 39.292969 89.710938 Z M 36.550781 88.46875 " clip-rule="nonzero"/></clipPath><clipPath id="3be3c3bc53"><path d="M 37.125 87.199219 L 46.109375 67.335938 L 49.425781 67.304688 L 39.292969 89.710938 Z M 37.125 87.199219 " clip-rule="nonzero"/></clipPath><clipPath id="64d220f0a6"><path d="M 35.449219 87.203125 L 39.308594 87.203125 L 39.308594 89.714844 L 35.449219 89.714844 Z M 35.449219 87.203125 " clip-rule="nonzero"/></clipPath><clipPath id="6b47278c6c"><path d="M 37.378906 87.203125 L 39.308594 89.714844 L 35.449219 89.714844 Z M 37.378906 87.203125 " clip-rule="nonzero"/></clipPath><clipPath id="3b7da22404"><path d="M 16.648438 55.234375 L 61.625 55.234375 L 61.625 100.210938 L 16.648438 100.210938 Z M 16.648438 55.234375 " clip-rule="nonzero"/></clipPath><clipPath id="641944db05"><path d="M 39.136719 55.234375 C 26.71875 55.234375 16.648438 65.304688 16.648438 77.722656 C 16.648438 90.144531 26.71875 100.210938 39.136719 100.210938 C 51.558594 100.210938 61.625 90.144531 61.625 77.722656 C 61.625 65.304688 51.558594 55.234375 39.136719 55.234375 Z M 39.136719 55.234375 " clip-rule="nonzero"/></clipPath></defs><g fill="#ffffff" fill-opacity="1"><g transform="translate(62.639078, 86.103949)"><g><path d="M 11.09375 0 L 16.945312 -16.214844 L 13.042969 -16.214844 L 8.859375 -2.84375 L 4.746094 -16.214844 L 0.753906 -16.214844 L 6.535156 0 Z M 11.09375 0 "/></g></g></g><g fill="#ffffff" fill-opacity="1"><g transform="translate(79.366326, 86.103949)"><g><path d="M 10.953125 -4.582031 L 12.433594 0 L 16.429688 0 L 10.644531 -16.214844 L 6.085938 -16.214844 L 0.234375 0 L 4.160156 0 L 5.664062 -4.582031 Z M 8.320312 -13.019531 L 10.035156 -7.472656 L 6.582031 -7.472656 Z M 8.320312 -13.019531 "/></g></g></g><g fill="#ffffff" fill-opacity="1"><g transform="translate(95.576716, 86.103949)"><g><path d="M 14.03125 -3.101562 L 5.6875 -3.101562 L 5.6875 -16.214844 L 1.996094 -16.214844 L 1.996094 0 L 14.03125 0 Z M 14.03125 -3.101562 "/></g></g></g><g fill="#ffffff" fill-opacity="1"><g transform="translate(110.025112, 86.103949)"><g><path d="M 5.6875 0 L 5.6875 -16.214844 L 1.996094 -16.214844 L 1.996094 0 Z M 5.6875 0 "/></g></g></g><g fill="#ffffff" fill-opacity="1"><g transform="translate(117.120092, 86.103949)"><g><path d="M 9.894531 -16.121094 C 9.070312 -16.214844 8.695312 -16.214844 7.828125 -16.214844 L 1.996094 -16.214844 L 1.996094 0 L 7.800781 0 C 8.671875 0 9.046875 0 9.871094 -0.09375 C 13.632812 -0.539062 16.664062 -3.3125 16.664062 -8.320312 C 16.664062 -13.324219 13.65625 -15.699219 9.894531 -16.121094 Z M 8.976562 -2.9375 C 8.4375 -2.890625 8.015625 -2.890625 7.332031 -2.890625 L 5.6875 -2.890625 L 5.6875 -13.347656 L 7.355469 -13.347656 C 8.039062 -13.347656 8.460938 -13.324219 9 -13.277344 C 11.28125 -13.019531 12.785156 -11.328125 12.785156 -8.273438 C 12.785156 -5.148438 11.257812 -3.195312 8.976562 -2.9375 Z M 8.976562 -2.9375 "/></g></g></g><g fill="#4e9bd4" fill-opacity="1"><g transform="translate(134.492182, 86.103949)"><g><path d="M 10.953125 -4.582031 L 12.433594 0 L 16.429688 0 L 10.644531 -16.214844 L 6.085938 -16.214844 L 0.234375 0 L 4.160156 0 L 5.664062 -4.582031 Z M 8.320312 -13.019531 L 10.035156 -7.472656 L 6.582031 -7.472656 Z M 8.320312 -13.019531 "/></g></g></g><g fill="#4e9bd4" fill-opacity="1"><g transform="translate(150.702572, 86.103949)"><g><path d="M 5.6875 0 L 5.6875 -16.214844 L 1.996094 -16.214844 L 1.996094 0 Z M 5.6875 0 "/></g></g></g><g fill="#ffffff" fill-opacity="1"><g transform="translate(157.805948, 86.103949)"><g><path d="M 14.925781 -13.347656 L 14.925781 -16.214844 L 0.445312 -16.214844 L 0.445312 -13.347656 L 5.851562 -13.347656 L 5.851562 0 L 9.519531 0 L 9.519531 -13.347656 Z M 14.925781 -13.347656 "/></g></g></g><g fill="#ffffff" fill-opacity="1"><g transform="translate(172.53626, 86.103949)"><g><path d="M 9.378906 -16.546875 C 4.347656 -16.546875 1.222656 -13.253906 1.222656 -8.109375 C 1.222656 -2.984375 4.347656 0.328125 9.378906 0.328125 C 14.382812 0.328125 17.507812 -2.984375 17.507812 -8.109375 C 17.507812 -13.253906 14.382812 -16.546875 9.378906 -16.546875 Z M 9.378906 -2.398438 C 6.675781 -2.398438 5.03125 -4.488281 5.03125 -8.109375 C 5.03125 -11.75 6.675781 -13.820312 9.378906 -13.820312 C 12.054688 -13.820312 13.703125 -11.75 13.703125 -8.109375 C 13.703125 -4.488281 12.054688 -2.398438 9.378906 -2.398438 Z M 9.378906 -2.398438 "/></g></g></g><g fill="#ffffff" fill-opacity="1"><g transform="translate(190.743587, 86.103949)"><g><path d="M 14.148438 -4.019531 C 13.960938 -5.898438 13.324219 -7.191406 11.679688 -7.800781 C 13.726562 -8.390625 14.898438 -9.730469 14.898438 -11.796875 C 14.898438 -14.640625 12.949219 -15.816406 10.597656 -16.097656 C 9.753906 -16.191406 9.117188 -16.214844 8.15625 -16.214844 L 1.996094 -16.214844 L 1.996094 0 L 5.6875 0 L 5.6875 -6.367188 L 7.144531 -6.367188 C 7.589844 -6.367188 7.992188 -6.367188 8.4375 -6.34375 C 9.660156 -6.25 10.339844 -5.21875 10.550781 -3.453125 C 10.695312 -2.089844 10.929688 -1.128906 11.328125 0 L 15.347656 0 C 14.6875 -0.941406 14.359375 -2.113281 14.148438 -4.019531 Z M 5.6875 -9.070312 L 5.6875 -13.347656 L 7.730469 -13.347656 C 8.25 -13.347656 8.648438 -13.324219 8.976562 -13.300781 C 10.175781 -13.160156 11.046875 -12.691406 11.046875 -11.210938 C 11.046875 -9.730469 10.035156 -9.210938 8.835938 -9.09375 C 8.507812 -9.070312 8.109375 -9.070312 7.589844 -9.070312 Z M 5.6875 -9.070312 "/></g></g></g><g clip-path="url(#4ec8f2aba3)"><g clip-path="url(#87f898daae)"><g clip-path="url(#c3d99ab40f)"><path fill="#4e9bd4" d="M 30.828125 74.125 L 38.144531 88.339844 L 35.46875 89.71875 L 28.152344 75.503906 Z M 30.828125 74.125 " fill-opacity="1" fill-rule="nonzero"/></g></g></g><g clip-path="url(#bc86214349)"><g clip-path="url(#1149e397cc)"><g clip-path="url(#3be3c3bc53)"><path fill="#4e9bd4" d="M 36.550781 88.46875 L 46.683594 66.0625 L 49.425781 67.304688 L 39.292969 89.710938 Z M 36.550781 88.46875 " fill-opacity="1" fill-rule="nonzero"/></g></g></g><g clip-path="url(#64d220f0a6)"><g clip-path="url(#6b47278c6c)"><path fill="#4e9bd4" d="M 35.449219 87.203125 L 39.308594 87.203125 L 39.308594 89.714844 L 35.449219 89.714844 Z M 35.449219 87.203125 " fill-opacity="1" fill-rule="nonzero"/></g></g><g clip-path="url(#3b7da22404)"><g clip-path="url(#641944db05)"><path stroke-linecap="butt" transform="matrix(0.744174, 0, 0, 0.744174, 16.649866, 55.23495)" fill="none" stroke-linejoin="miter" d="M 30.217211 -0.000772015 C 13.530288 -0.000772015 -0.00192019 13.531436 -0.00192019 30.218359 C -0.00192019 46.910532 13.530288 60.437491 30.217211 60.437491 C 46.909384 60.437491 60.436343 46.910532 60.436343 30.218359 C 60.436343 13.531436 46.909384 -0.000772015 30.217211 -0.000772015 Z M 30.217211 -0.000772015 " stroke="#4e9bd4" stroke-width="8" stroke-opacity="1" stroke-miterlimit="4"/></g></g></svg>
